<svg width="407.54375px" height="368px" xmlns="http://www.w3.org/2000/svg" viewBox="46.228125000000006 -109 407.54375 368" style="background: rgba(0, 0, 0, 0);" preserveAspectRatio="xMidYMid"><defs><filter id="editing-offset"><feFlood flood-color="#fc4445" flood-opacity="0.5" result="c1"></feFlood><feFlood flood-color="#00ff00" flood-opacity="0.5" result="c2"></feFlood><feFlood flood-color="#0000ff" flood-opacity="0.5" result="c3"></feFlood><feComposite operator="in" in="c1" in2="SourceAlpha" result="text-c1"></feComposite><feComposite operator="in" in="c2" in2="SourceAlpha" result="text-c2"></feComposite><feComposite operator="in" in="c3" in2="SourceAlpha" result="text-c3"></feComposite><feOffset in="text-c1" dx="-10" dy="0" result="text1"></feOffset><feOffset in="text-c2" dx="10" dy="0" result="text2"></feOffset><feOffset in="text-c3" dx="0" dy="0" result="text3"></feOffset><feMerge><feMergeNode in="text1"></feMergeNode><feMergeNode in="text2"></feMergeNode><feMergeNode in="text3"></feMergeNode></feMerge></filter></defs><g filter="url(#editing-offset)"><g transform="translate(106.2499771118164, 148.63499450683594)"><path d="M104.49-143.95L127.93-143.95L127.93 0L104.49 0L104.49-64.84L42.19-64.84L42.19 0L18.36 0L18.36-143.95L42.19-143.95L42.19-80.86L104.49-80.86L104.49-143.95ZM221.48-74.22L269.14-74.22L269.14-18.55L269.14-18.55Q264.65-12.89 259.08-9.28L259.08-9.28L259.08-9.28Q253.52-5.66 247.36-3.32L247.36-3.32L247.36-3.32Q241.21-0.98 234.67 0L234.67 0L234.67 0Q228.13 0.98 221.68 0.98L221.68 0.98L221.68 0.98Q208.79 0.98 197.95-3.71L197.95-3.71L197.95-3.71Q187.11-8.40 179.00-17.58L179.00-17.58L179.00-17.58Q170.90-26.76 166.31-40.63L166.31-40.63L166.31-40.63Q161.72-54.49 161.72-72.66L161.72-72.66L161.72-72.66Q161.72-90.82 166.31-104.59L166.31-104.59L166.31-104.59Q170.90-118.36 179.00-127.54L179.00-127.54L179.00-127.54Q187.11-136.72 198.05-141.50L198.05-141.50L198.05-141.50Q208.98-146.29 221.68-146.29L221.68-146.29L221.68-146.29Q233.40-146.29 243.55-142.38L243.55-142.38L243.55-142.38Q253.71-138.48 261.72-130.66L261.72-130.66L245.51-116.21L245.51-116.21Q240.82-121.88 234.77-124.41L234.77-124.41L234.77-124.41Q228.71-126.95 222.27-126.95L222.27-126.95L222.27-126.95Q215.04-126.95 208.50-124.22L208.50-124.22L208.50-124.22Q201.95-121.48 196.78-114.94L196.78-114.94L196.78-114.94Q191.60-108.40 188.67-98.05L188.67-98.05L188.67-98.05Q185.74-87.70 185.55-72.66L185.55-72.66L185.55-72.66Q185.74-58.01 188.57-47.27L188.57-47.27L188.57-47.27Q191.41-36.52 196.39-29.69L196.39-29.69L196.39-29.69Q201.37-22.85 207.71-19.53L207.71-19.53L207.71-19.53Q214.06-16.21 221.09-16.21L221.09-16.21L221.09-16.21Q223.24-16.21 226.86-16.50L226.86-16.50L226.86-16.50Q230.47-16.80 234.08-17.48L234.08-17.48L234.08-17.48Q237.70-18.16 241.02-19.34L241.02-19.34L241.02-19.34Q244.34-20.51 245.90-22.66L245.90-22.66L245.90-58.20L221.48-58.20L221.48-74.22Z"></path></g></g><style>text {
  font-size: 64px;
  font-family: Arial Black;
  dominant-baseline: central;
  text-anchor: middle;
}</style></svg>